# xmcd
#
# Track frame offsets: 
#        150
#        10532
#        23849
#        32856
#        45037
#        53605
#        64483
#        77163
#        88546
#        97089
#
# Disc length: 1480 seconds
#
# Revision: 0
# Processed by: cddbd v1.5.1PL0 Copyright (c) Steve Scherf et al.
# Submitted via: ExactAudioCopy v0.95a5
#
DISCID=6e05c60a
DTITLE=Various Artist - Country Wedding Songs
DYEAR=2003
DGENRE=Country
TTITLE0=Alone With You
TTITLE1=Come Live With Me
TTITLE2=I Love You Honey
TTITLE3=Shelter Of My Arms
TTITLE4=You're My Man
TTITLE5=Soul Song
TTITLE6=Rose Garden
TTITLE7=That's How I Got To Memphis
TTITLE8=Love's Gonna Live Here
TTITLE9=Heart Of Dixie
EXTD=
EXTT0=
EXTT1=
EXTT2=
EXTT3=
EXTT4=
EXTT5=
EXTT6=
EXTT7=
EXTT8=
EXTT9=
PLAYORDER=
